<?xml version="1.0" encoding="utf-8"?>
<!-- Generator: Adobe Illustrator 18.0.0, SVG Export Plug-In . SVG Version: 6.00 Build 0)  -->
<!DOCTYPE svg PUBLIC "-//W3C//DTD SVG 1.1//EN" "http://www.w3.org/Graphics/SVG/1.1/DTD/svg11.dtd">
<svg version="1.1" xmlns="http://www.w3.org/2000/svg" xmlns:xlink="http://www.w3.org/1999/xlink" x="0px" y="0px"
	 viewBox="0 0 15.5 15.5" enable-background="new 0 0 15.5 15.5" xml:space="preserve">
<g id="mapa_base">
</g>
<g id="Camada_5">
</g>
<g id="mancha_países">
</g>
<g id="diagramas">
</g>
<g id="legendas">
	<path fill="#F9B233" d="M7.8,0C3.5,0,0,3.5,0,7.8c0,4.3,3.5,7.8,7.8,7.8s7.8-3.5,7.8-7.8C15.5,3.5,12,0,7.8,0z M5.8,12.1H5.6
		c-0.3,0-0.5-0.2-0.5-0.5c0-0.3,0.2-0.5,0.5-0.5h0.2c0.3,0,0.5,0.2,0.5,0.5C6.3,11.8,6.1,12.1,5.8,12.1z M5.8,10.7H5.6
		c-0.3,0-0.5-0.2-0.5-0.5c0-0.3,0.2-0.5,0.5-0.5h0.2c0.3,0,0.5,0.2,0.5,0.5C6.3,10.5,6.1,10.7,5.8,10.7z M5.8,9.3H5.6
		c-0.3,0-0.5-0.2-0.5-0.5s0.2-0.5,0.5-0.5h0.2c0.3,0,0.5,0.2,0.5,0.5S6.1,9.3,5.8,9.3z M5.8,7.9H5.6c-0.3,0-0.5-0.2-0.5-0.5
		c0-0.3,0.2-0.5,0.5-0.5h0.2c0.3,0,0.5,0.2,0.5,0.5C6.3,7.7,6.1,7.9,5.8,7.9z M9.6,12.1H8.8c-0.3,0-0.5-0.2-0.5-0.5
		c0-0.3,0.2-0.5,0.5-0.5h0.8c0.3,0,0.5,0.2,0.5,0.5C10.1,11.8,9.8,12.1,9.6,12.1z M9.6,10.6H8.8c-0.3,0-0.5-0.2-0.5-0.5
		c0-0.3,0.2-0.5,0.5-0.5h0.8c0.3,0,0.5,0.2,0.5,0.5C10.1,10.4,9.8,10.6,9.6,10.6z M9.6,9.1H8.8c-0.3,0-0.5-0.2-0.5-0.5
		s0.2-0.5,0.5-0.5h0.8c0.3,0,0.5,0.2,0.5,0.5S9.8,9.1,9.6,9.1z M9.6,7.7H8.8c-0.3,0-0.5-0.2-0.5-0.5c0-0.3,0.2-0.5,0.5-0.5h0.8
		c0.3,0,0.5,0.2,0.5,0.5C10.1,7.4,9.8,7.7,9.6,7.7z M9.6,6.2H8.8c-0.3,0-0.5-0.2-0.5-0.5c0-0.3,0.2-0.5,0.5-0.5h0.8
		c0.3,0,0.5,0.2,0.5,0.5C10.1,5.9,9.8,6.2,9.6,6.2z M9.6,4.7H8.8c-0.3,0-0.5-0.2-0.5-0.5s0.2-0.5,0.5-0.5h0.8c0.3,0,0.5,0.2,0.5,0.5
		S9.8,4.7,9.6,4.7z M11.9,12.8c0,0.3-0.3,0.6-0.6,0.6c-0.3,0-0.6-0.3-0.6-0.6V3.3H7.8v7.8c0,0.3-0.3,0.6-0.6,0.6s-0.6-0.3-0.6-0.6
		V6.3H4.8v6.5c0,0.3-0.3,0.6-0.6,0.6s-0.6-0.3-0.6-0.6V5.7C3.6,5.3,3.9,5,4.2,5h2.3V2.7c0-0.3,0.3-0.6,0.6-0.6h4.1
		c0.3,0,0.6,0.3,0.6,0.6V12.8z"/>
</g>
</svg>
